<svg xmlns="http://www.w3.org/2000/svg" width="1920" height="1080"
     viewBox="0 0 1920 1080" preserveAspectRatio="xMidYMid slice" role="img"
     aria-label="finewave decorative wave background">
  <defs>
    <linearGradient id="bg" x1="0" y1="0" x2="0" y2="1">
      <stop offset="0" stop-color="#0a1526"/>
      <stop offset="1" stop-color="#060d1a"/>
    </linearGradient>
    
  </defs>
  <rect width="1920" height="1080" fill="url(#bg)"/>
  <path d="M 0.0 129.6 L 20.0 134.5 L 40.0 139.2 L 60.0 143.5 L 80.0 147.2 L 100.0 150.1 L 120.0 152.1 L 140.0 153.1 L 160.0 153.1 L 180.0 152.0 L 200.0 149.8 L 220.0 146.7 L 240.0 142.8 L 260.0 138.2 L 280.0 133.0 L 300.0 127.5 L 320.0 122.0 L 340.0 116.5 L 360.0 111.4 L 380.0 106.7 L 400.0 102.8 L 420.0 99.7 L 440.0 97.6 L 460.0 96.4 L 480.0 96.4 L 500.0 97.4 L 520.0 99.4 L 540.0 102.3 L 560.0 106.0 L 580.0 110.3 L 600.0 115.0 L 620.0 119.9 L 640.0 124.8 L 660.0 129.5 L 680.0 133.8 L 700.0 137.5 L 720.0 140.4 L 740.0 142.4 L 760.0 143.4 L 780.0 143.4 L 800.0 142.3 L 820.0 140.1 L 840.0 137.0 L 860.0 133.1 L 880.0 128.5 L 900.0 123.3 L 920.0 117.9 L 940.0 112.3 L 960.0 106.8 L 980.0 101.7 L 1000.0 97.0 L 1020.0 93.1 L 1040.0 90.0 L 1060.0 87.9 L 1080.0 86.8 L 1100.0 86.7 L 1120.0 87.7 L 1140.0 89.7 L 1160.0 92.6 L 1180.0 96.3 L 1200.0 100.6 L 1220.0 105.3 L 1240.0 110.2 L 1260.0 115.1 L 1280.0 119.9 L 1300.0 124.1 L 1320.0 127.8 L 1340.0 130.7 L 1360.0 132.7 L 1380.0 133.7 L 1400.0 133.7 L 1420.0 132.6 L 1440.0 130.4 L 1460.0 127.3 L 1480.0 123.4 L 1500.0 118.8 L 1520.0 113.6 L 1540.0 108.2 L 1560.0 102.6 L 1580.0 97.1 L 1600.0 92.0 L 1620.0 87.4 L 1640.0 83.4 L 1660.0 80.3 L 1680.0 78.2 L 1700.0 77.1 L 1720.0 77.0 L 1740.0 78.0 L 1760.0 80.0 L 1780.0 82.9 L 1800.0 86.6 L 1820.0 90.9 L 1840.0 95.6 L 1860.0 100.5 L 1880.0 105.5 L 1900.0 110.2 L 1920.0 114.5" fill="none" stroke="#4a6a9a" stroke-width="1.1" stroke-opacity="0.150"/>
  <path d="M 0.0 185.6 L 20.0 190.3 L 40.0 194.1 L 60.0 197.0 L 80.0 198.8 L 100.0 199.5 L 120.0 199.0 L 140.0 197.4 L 160.0 194.6 L 180.0 190.8 L 200.0 186.2 L 220.0 180.7 L 240.0 174.7 L 260.0 168.4 L 280.0 161.9 L 300.0 155.5 L 320.0 149.4 L 340.0 143.9 L 360.0 139.0 L 380.0 135.0 L 400.0 132.0 L 420.0 130.1 L 440.0 129.4 L 460.0 129.8 L 480.0 131.4 L 500.0 134.1 L 520.0 137.7 L 540.0 142.1 L 560.0 147.2 L 580.0 152.8 L 600.0 158.6 L 620.0 164.5 L 640.0 170.1 L 660.0 175.3 L 680.0 179.9 L 700.0 183.8 L 720.0 186.7 L 740.0 188.5 L 760.0 189.2 L 780.0 188.7 L 800.0 187.1 L 820.0 184.3 L 840.0 180.5 L 860.0 175.8 L 880.0 170.4 L 900.0 164.4 L 920.0 158.1 L 940.0 151.6 L 960.0 145.2 L 980.0 139.1 L 1000.0 133.6 L 1020.0 128.7 L 1040.0 124.7 L 1060.0 121.7 L 1080.0 119.8 L 1100.0 119.1 L 1120.0 119.5 L 1140.0 121.1 L 1160.0 123.7 L 1180.0 127.4 L 1200.0 131.8 L 1220.0 136.9 L 1240.0 142.5 L 1260.0 148.3 L 1280.0 154.1 L 1300.0 159.8 L 1320.0 165.0 L 1340.0 169.6 L 1360.0 173.5 L 1380.0 176.3 L 1400.0 178.2 L 1420.0 178.9 L 1440.0 178.4 L 1460.0 176.7 L 1480.0 174.0 L 1500.0 170.2 L 1520.0 165.5 L 1540.0 160.1 L 1560.0 154.1 L 1580.0 147.8 L 1600.0 141.3 L 1620.0 134.9 L 1640.0 128.8 L 1660.0 123.2 L 1680.0 118.4 L 1700.0 114.4 L 1720.0 111.4 L 1740.0 109.5 L 1760.0 108.8 L 1780.0 109.2 L 1800.0 110.8 L 1820.0 113.4 L 1840.0 117.1 L 1860.0 121.5 L 1880.0 126.6 L 1900.0 132.2 L 1920.0 138.0" fill="none" stroke="#4a6a9a" stroke-width="1.1" stroke-opacity="0.161"/>
  <path d="M 0.0 239.7 L 20.0 241.8 L 40.0 242.8 L 60.0 242.6 L 80.0 241.3 L 100.0 238.8 L 120.0 235.4 L 140.0 230.9 L 160.0 225.7 L 180.0 219.8 L 200.0 213.4 L 220.0 206.7 L 240.0 200.0 L 260.0 193.4 L 280.0 187.1 L 300.0 181.4 L 320.0 176.3 L 340.0 172.1 L 360.0 168.9 L 380.0 166.7 L 400.0 165.7 L 420.0 165.8 L 440.0 167.1 L 460.0 169.4 L 480.0 172.8 L 500.0 177.0 L 520.0 182.0 L 540.0 187.5 L 560.0 193.4 L 580.0 199.5 L 600.0 205.6 L 620.0 211.4 L 640.0 216.9 L 660.0 221.7 L 680.0 225.7 L 700.0 228.8 L 720.0 230.9 L 740.0 231.8 L 760.0 231.7 L 780.0 230.3 L 800.0 227.9 L 820.0 224.4 L 840.0 220.0 L 860.0 214.7 L 880.0 208.8 L 900.0 202.5 L 920.0 195.8 L 940.0 189.1 L 960.0 182.4 L 980.0 176.2 L 1000.0 170.4 L 1020.0 165.4 L 1040.0 161.2 L 1060.0 157.9 L 1080.0 155.8 L 1100.0 154.7 L 1120.0 154.9 L 1140.0 156.1 L 1160.0 158.5 L 1180.0 161.8 L 1200.0 166.1 L 1220.0 171.0 L 1240.0 176.6 L 1260.0 182.5 L 1280.0 188.6 L 1300.0 194.7 L 1320.0 200.5 L 1340.0 205.9 L 1360.0 210.7 L 1380.0 214.7 L 1400.0 217.9 L 1420.0 219.9 L 1440.0 220.9 L 1460.0 220.7 L 1480.0 219.4 L 1500.0 217.0 L 1520.0 213.5 L 1540.0 209.1 L 1560.0 203.8 L 1580.0 197.9 L 1600.0 191.5 L 1620.0 184.9 L 1640.0 178.1 L 1660.0 171.5 L 1680.0 165.2 L 1700.0 159.5 L 1720.0 154.4 L 1740.0 150.2 L 1760.0 147.0 L 1780.0 144.8 L 1800.0 143.8 L 1820.0 143.9 L 1840.0 145.2 L 1860.0 147.5 L 1880.0 150.9 L 1900.0 155.1 L 1920.0 160.1" fill="none" stroke="#4a6a9a" stroke-width="1.1" stroke-opacity="0.172"/>
  <path d="M 0.0 281.4 L 20.0 279.8 L 40.0 276.9 L 60.0 272.7 L 80.0 267.4 L 100.0 261.2 L 120.0 254.4 L 140.0 247.2 L 160.0 239.9 L 180.0 232.7 L 200.0 226.1 L 220.0 220.1 L 240.0 215.1 L 260.0 211.3 L 280.0 208.7 L 300.0 207.5 L 320.0 207.8 L 340.0 209.4 L 360.0 212.4 L 380.0 216.5 L 400.0 221.6 L 420.0 227.6 L 440.0 234.0 L 460.0 240.7 L 480.0 247.3 L 500.0 253.6 L 520.0 259.3 L 540.0 264.2 L 560.0 268.0 L 580.0 270.6 L 600.0 271.9 L 620.0 271.7 L 640.0 270.1 L 660.0 267.2 L 680.0 263.0 L 700.0 257.7 L 720.0 251.5 L 740.0 244.7 L 760.0 237.5 L 780.0 230.2 L 800.0 223.1 L 820.0 216.4 L 840.0 210.4 L 860.0 205.4 L 880.0 201.6 L 900.0 199.0 L 920.0 197.9 L 940.0 198.1 L 960.0 199.7 L 980.0 202.7 L 1000.0 206.8 L 1020.0 212.0 L 1040.0 217.9 L 1060.0 224.3 L 1080.0 231.0 L 1100.0 237.6 L 1120.0 243.9 L 1140.0 249.6 L 1160.0 254.5 L 1180.0 258.3 L 1200.0 260.9 L 1220.0 262.2 L 1240.0 262.0 L 1260.0 260.4 L 1280.0 257.5 L 1300.0 253.3 L 1320.0 248.0 L 1340.0 241.9 L 1360.0 235.0 L 1380.0 227.8 L 1400.0 220.5 L 1420.0 213.4 L 1440.0 206.7 L 1460.0 200.7 L 1480.0 195.8 L 1500.0 191.9 L 1520.0 189.3 L 1540.0 188.2 L 1560.0 188.4 L 1580.0 190.0 L 1600.0 193.0 L 1620.0 197.1 L 1640.0 202.3 L 1660.0 208.2 L 1680.0 214.6 L 1700.0 221.3 L 1720.0 227.9 L 1740.0 234.2 L 1760.0 239.9 L 1780.0 244.8 L 1800.0 248.6 L 1820.0 251.2 L 1840.0 252.5 L 1860.0 252.3 L 1880.0 250.7 L 1900.0 247.8 L 1920.0 243.6" fill="none" stroke="#4a6a9a" stroke-width="1.1" stroke-opacity="0.183"/>
  <path d="M 0.0 309.7 L 20.0 305.7 L 40.0 300.9 L 60.0 295.6 L 80.0 289.9 L 100.0 284.1 L 120.0 278.2 L 140.0 272.6 L 160.0 267.3 L 180.0 262.7 L 200.0 258.7 L 220.0 255.7 L 240.0 253.6 L 260.0 252.6 L 280.0 252.6 L 300.0 253.6 L 320.0 255.7 L 340.0 258.7 L 360.0 262.4 L 380.0 266.8 L 400.0 271.7 L 420.0 276.9 L 440.0 282.2 L 460.0 287.3 L 480.0 292.2 L 500.0 296.5 L 520.0 300.2 L 540.0 303.1 L 560.0 305.0 L 580.0 306.0 L 600.0 305.9 L 620.0 304.7 L 640.0 302.5 L 660.0 299.4 L 680.0 295.3 L 700.0 290.6 L 720.0 285.3 L 740.0 279.6 L 760.0 273.8 L 780.0 267.9 L 800.0 262.3 L 820.0 257.0 L 840.0 252.3 L 860.0 248.4 L 880.0 245.4 L 900.0 243.3 L 920.0 242.2 L 940.0 242.2 L 960.0 243.3 L 980.0 245.4 L 1000.0 248.3 L 1020.0 252.1 L 1040.0 256.5 L 1060.0 261.4 L 1080.0 266.6 L 1100.0 271.8 L 1120.0 277.0 L 1140.0 281.8 L 1160.0 286.2 L 1180.0 289.9 L 1200.0 292.8 L 1220.0 294.7 L 1240.0 295.7 L 1260.0 295.6 L 1280.0 294.4 L 1300.0 292.2 L 1320.0 289.0 L 1340.0 285.0 L 1360.0 280.3 L 1380.0 275.0 L 1400.0 269.3 L 1420.0 263.4 L 1440.0 257.6 L 1460.0 251.9 L 1480.0 246.7 L 1500.0 242.0 L 1520.0 238.1 L 1540.0 235.1 L 1560.0 233.0 L 1580.0 231.9 L 1600.0 231.9 L 1620.0 233.0 L 1640.0 235.1 L 1660.0 238.0 L 1680.0 241.8 L 1700.0 246.2 L 1720.0 251.1 L 1740.0 256.3 L 1760.0 261.5 L 1780.0 266.7 L 1800.0 271.5 L 1820.0 275.9 L 1840.0 279.6 L 1860.0 282.4 L 1880.0 284.4 L 1900.0 285.3 L 1920.0 285.2" fill="none" stroke="#4a6a9a" stroke-width="1.1" stroke-opacity="0.194"/>
  <path d="M 0.0 333.6 L 20.0 329.5 L 40.0 325.1 L 60.0 320.8 L 80.0 316.6 L 100.0 312.6 L 120.0 308.9 L 140.0 305.7 L 160.0 303.1 L 180.0 301.1 L 200.0 299.7 L 220.0 299.1 L 240.0 299.2 L 260.0 300.0 L 280.0 301.5 L 300.0 303.6 L 320.0 306.2 L 340.0 309.3 L 360.0 312.7 L 380.0 316.3 L 400.0 320.1 L 420.0 323.7 L 440.0 327.2 L 460.0 330.5 L 480.0 333.3 L 500.0 335.6 L 520.0 337.3 L 540.0 338.3 L 560.0 338.7 L 580.0 338.3 L 600.0 337.3 L 620.0 335.5 L 640.0 333.1 L 660.0 330.1 L 680.0 326.6 L 700.0 322.7 L 720.0 318.5 L 740.0 314.2 L 760.0 309.9 L 780.0 305.6 L 800.0 301.6 L 820.0 298.0 L 840.0 294.8 L 860.0 292.1 L 880.0 290.1 L 900.0 288.8 L 920.0 288.2 L 940.0 288.3 L 960.0 289.1 L 980.0 290.6 L 1000.0 292.6 L 1020.0 295.3 L 1040.0 298.4 L 1060.0 301.8 L 1080.0 305.4 L 1100.0 309.1 L 1120.0 312.8 L 1140.0 316.3 L 1160.0 319.5 L 1180.0 322.3 L 1200.0 324.6 L 1220.0 326.3 L 1240.0 327.4 L 1260.0 327.8 L 1280.0 327.4 L 1300.0 326.3 L 1320.0 324.5 L 1340.0 322.1 L 1360.0 319.1 L 1380.0 315.6 L 1400.0 311.7 L 1420.0 307.6 L 1440.0 303.3 L 1460.0 298.9 L 1480.0 294.7 L 1500.0 290.7 L 1520.0 287.0 L 1540.0 283.8 L 1560.0 281.2 L 1580.0 279.2 L 1600.0 277.9 L 1620.0 277.2 L 1640.0 277.3 L 1660.0 278.1 L 1680.0 279.6 L 1700.0 281.7 L 1720.0 284.3 L 1740.0 287.4 L 1760.0 290.8 L 1780.0 294.5 L 1800.0 298.2 L 1820.0 301.9 L 1840.0 305.4 L 1860.0 308.6 L 1880.0 311.4 L 1900.0 313.7 L 1920.0 315.4" fill="none" stroke="#4a6a9a" stroke-width="1.1" stroke-opacity="0.205"/>
  <path d="M 0.0 361.4 L 20.0 357.7 L 40.0 354.3 L 60.0 351.2 L 80.0 348.6 L 100.0 346.6 L 120.0 345.3 L 140.0 344.6 L 160.0 344.7 L 180.0 345.5 L 200.0 346.9 L 220.0 348.8 L 240.0 351.3 L 260.0 354.2 L 280.0 357.2 L 300.0 360.4 L 320.0 363.6 L 340.0 366.5 L 360.0 369.2 L 380.0 371.4 L 400.0 373.0 L 420.0 374.1 L 440.0 374.4 L 460.0 374.1 L 480.0 373.1 L 500.0 371.4 L 520.0 369.0 L 540.0 366.2 L 560.0 362.9 L 580.0 359.3 L 600.0 355.5 L 620.0 351.7 L 640.0 348.0 L 660.0 344.6 L 680.0 341.5 L 700.0 338.9 L 720.0 336.9 L 740.0 335.6 L 760.0 335.0 L 780.0 335.0 L 800.0 335.8 L 820.0 337.2 L 840.0 339.2 L 860.0 341.6 L 880.0 344.5 L 900.0 347.5 L 920.0 350.7 L 940.0 353.9 L 960.0 356.8 L 980.0 359.5 L 1000.0 361.7 L 1020.0 363.3 L 1040.0 364.4 L 1060.0 364.8 L 1080.0 364.4 L 1100.0 363.4 L 1120.0 361.7 L 1140.0 359.3 L 1160.0 356.5 L 1180.0 353.2 L 1200.0 349.6 L 1220.0 345.8 L 1240.0 342.0 L 1260.0 338.3 L 1280.0 334.9 L 1300.0 331.8 L 1320.0 329.2 L 1340.0 327.3 L 1360.0 325.9 L 1380.0 325.3 L 1400.0 325.3 L 1420.0 326.1 L 1440.0 327.5 L 1460.0 329.5 L 1480.0 331.9 L 1500.0 334.8 L 1520.0 337.9 L 1540.0 341.0 L 1560.0 344.2 L 1580.0 347.1 L 1600.0 349.8 L 1620.0 352.0 L 1640.0 353.7 L 1660.0 354.7 L 1680.0 355.1 L 1700.0 354.7 L 1720.0 353.7 L 1740.0 352.0 L 1760.0 349.7 L 1780.0 346.8 L 1800.0 343.5 L 1820.0 339.9 L 1840.0 336.1 L 1860.0 332.3 L 1880.0 328.6 L 1900.0 325.2 L 1920.0 322.1" fill="none" stroke="#4a6a9a" stroke-width="1.1" stroke-opacity="0.215"/>
  <path d="M 0.0 392.7 L 20.0 390.2 L 40.0 388.2 L 60.0 386.8 L 80.0 385.9 L 100.0 385.5 L 120.0 385.8 L 140.0 386.6 L 160.0 387.9 L 180.0 389.7 L 200.0 391.9 L 220.0 394.4 L 240.0 397.1 L 260.0 399.8 L 280.0 402.6 L 300.0 405.1 L 320.0 407.5 L 340.0 409.5 L 360.0 411.1 L 380.0 412.2 L 400.0 412.8 L 420.0 412.8 L 440.0 412.2 L 460.0 411.1 L 480.0 409.4 L 500.0 407.2 L 520.0 404.5 L 540.0 401.6 L 560.0 398.4 L 580.0 395.0 L 600.0 391.6 L 620.0 388.3 L 640.0 385.2 L 660.0 382.4 L 680.0 379.9 L 700.0 377.9 L 720.0 376.5 L 740.0 375.5 L 760.0 375.2 L 780.0 375.5 L 800.0 376.3 L 820.0 377.6 L 840.0 379.4 L 860.0 381.6 L 880.0 384.1 L 900.0 386.7 L 920.0 389.5 L 940.0 392.2 L 960.0 394.8 L 980.0 397.2 L 1000.0 399.2 L 1020.0 400.8 L 1040.0 401.9 L 1060.0 402.5 L 1080.0 402.5 L 1100.0 401.9 L 1120.0 400.8 L 1140.0 399.0 L 1160.0 396.8 L 1180.0 394.2 L 1200.0 391.3 L 1220.0 388.0 L 1240.0 384.7 L 1260.0 381.3 L 1280.0 378.0 L 1300.0 374.9 L 1320.0 372.1 L 1340.0 369.6 L 1360.0 367.6 L 1380.0 366.1 L 1400.0 365.2 L 1420.0 364.9 L 1440.0 365.2 L 1460.0 366.0 L 1480.0 367.3 L 1500.0 369.1 L 1520.0 371.3 L 1540.0 373.8 L 1560.0 376.4 L 1580.0 379.2 L 1600.0 381.9 L 1620.0 384.5 L 1640.0 386.9 L 1660.0 388.9 L 1680.0 390.5 L 1700.0 391.6 L 1720.0 392.2 L 1740.0 392.2 L 1760.0 391.6 L 1780.0 390.4 L 1800.0 388.7 L 1820.0 386.5 L 1840.0 383.9 L 1860.0 380.9 L 1880.0 377.7 L 1900.0 374.4 L 1920.0 371.0" fill="none" stroke="#4a6a9a" stroke-width="1.1" stroke-opacity="0.226"/>
  <path d="M 0.0 423.6 L 20.0 422.5 L 40.0 422.0 L 60.0 422.2 L 80.0 422.9 L 100.0 424.3 L 120.0 426.2 L 140.0 428.6 L 160.0 431.3 L 180.0 434.3 L 200.0 437.4 L 220.0 440.6 L 240.0 443.8 L 260.0 446.8 L 280.0 449.5 L 300.0 451.9 L 320.0 453.7 L 340.0 455.1 L 360.0 455.9 L 380.0 456.0 L 400.0 455.5 L 420.0 454.4 L 440.0 452.7 L 460.0 450.5 L 480.0 447.7 L 500.0 444.5 L 520.0 441.0 L 540.0 437.3 L 560.0 433.5 L 580.0 429.7 L 600.0 426.0 L 620.0 422.5 L 640.0 419.3 L 660.0 416.6 L 680.0 414.3 L 700.0 412.6 L 720.0 411.5 L 740.0 411.1 L 760.0 411.2 L 780.0 412.0 L 800.0 413.4 L 820.0 415.3 L 840.0 417.6 L 860.0 420.3 L 880.0 423.3 L 900.0 426.5 L 920.0 429.7 L 940.0 432.9 L 960.0 435.9 L 980.0 438.6 L 1000.0 440.9 L 1020.0 442.8 L 1040.0 444.2 L 1060.0 444.9 L 1080.0 445.1 L 1100.0 444.6 L 1120.0 443.5 L 1140.0 441.8 L 1160.0 439.5 L 1180.0 436.8 L 1200.0 433.6 L 1220.0 430.1 L 1240.0 426.4 L 1260.0 422.6 L 1280.0 418.7 L 1300.0 415.0 L 1320.0 411.5 L 1340.0 408.4 L 1360.0 405.6 L 1380.0 403.4 L 1400.0 401.7 L 1420.0 400.6 L 1440.0 400.1 L 1460.0 400.3 L 1480.0 401.1 L 1500.0 402.4 L 1520.0 404.3 L 1540.0 406.7 L 1560.0 409.4 L 1580.0 412.4 L 1600.0 415.6 L 1620.0 418.8 L 1640.0 421.9 L 1660.0 424.9 L 1680.0 427.6 L 1700.0 430.0 L 1720.0 431.9 L 1740.0 433.2 L 1760.0 434.0 L 1780.0 434.1 L 1800.0 433.7 L 1820.0 432.6 L 1840.0 430.9 L 1860.0 428.6 L 1880.0 425.8 L 1900.0 422.7 L 1920.0 419.2" fill="none" stroke="#4a6a9a" stroke-width="1.1" stroke-opacity="0.237"/>
  <path d="M 0.0 455.9 L 20.0 457.4 L 40.0 459.8 L 60.0 463.1 L 80.0 467.1 L 100.0 471.6 L 120.0 476.4 L 140.0 481.4 L 160.0 486.3 L 180.0 490.9 L 200.0 495.0 L 220.0 498.4 L 240.0 500.9 L 260.0 502.5 L 280.0 503.1 L 300.0 502.6 L 320.0 501.1 L 340.0 498.5 L 360.0 495.0 L 380.0 490.7 L 400.0 485.8 L 420.0 480.5 L 440.0 474.9 L 460.0 469.3 L 480.0 463.9 L 500.0 458.9 L 520.0 454.6 L 540.0 450.9 L 560.0 448.2 L 580.0 446.5 L 600.0 445.8 L 620.0 446.3 L 640.0 447.7 L 660.0 450.1 L 680.0 453.4 L 700.0 457.4 L 720.0 461.9 L 740.0 466.8 L 760.0 471.7 L 780.0 476.6 L 800.0 481.2 L 820.0 485.3 L 840.0 488.7 L 860.0 491.2 L 880.0 492.8 L 900.0 493.4 L 920.0 492.9 L 940.0 491.4 L 960.0 488.8 L 980.0 485.3 L 1000.0 481.0 L 1020.0 476.1 L 1040.0 470.8 L 1060.0 465.2 L 1080.0 459.6 L 1100.0 454.2 L 1120.0 449.3 L 1140.0 444.9 L 1160.0 441.3 L 1180.0 438.5 L 1200.0 436.8 L 1220.0 436.2 L 1240.0 436.6 L 1260.0 438.0 L 1280.0 440.4 L 1300.0 443.7 L 1320.0 447.7 L 1340.0 452.2 L 1360.0 457.1 L 1380.0 462.0 L 1400.0 466.9 L 1420.0 471.5 L 1440.0 475.6 L 1460.0 479.0 L 1480.0 481.6 L 1500.0 483.2 L 1520.0 483.7 L 1540.0 483.2 L 1560.0 481.7 L 1580.0 479.1 L 1600.0 475.6 L 1620.0 471.3 L 1640.0 466.4 L 1660.0 461.1 L 1680.0 455.5 L 1700.0 449.9 L 1720.0 444.6 L 1740.0 439.6 L 1760.0 435.2 L 1780.0 431.6 L 1800.0 428.9 L 1820.0 427.1 L 1840.0 426.5 L 1860.0 426.9 L 1880.0 428.3 L 1900.0 430.7 L 1920.0 434.0" fill="none" stroke="#4a6a9a" stroke-width="1.1" stroke-opacity="0.248"/>
  <path d="M 0.0 497.5 L 20.0 501.9 L 40.0 507.1 L 60.0 512.7 L 80.0 518.5 L 100.0 524.4 L 120.0 530.0 L 140.0 535.3 L 160.0 539.9 L 180.0 543.8 L 200.0 546.7 L 220.0 548.5 L 240.0 549.2 L 260.0 548.7 L 280.0 547.1 L 300.0 544.3 L 320.0 540.5 L 340.0 535.8 L 360.0 530.4 L 380.0 524.4 L 400.0 518.0 L 420.0 511.5 L 440.0 505.1 L 460.0 499.0 L 480.0 493.4 L 500.0 488.5 L 520.0 484.5 L 540.0 481.5 L 560.0 479.6 L 580.0 478.8 L 600.0 479.3 L 620.0 480.9 L 640.0 483.5 L 660.0 487.2 L 680.0 491.6 L 700.0 496.8 L 720.0 502.4 L 740.0 508.2 L 760.0 514.1 L 780.0 519.7 L 800.0 525.0 L 820.0 529.6 L 840.0 533.4 L 860.0 536.3 L 880.0 538.2 L 900.0 538.9 L 920.0 538.4 L 940.0 536.8 L 960.0 534.0 L 980.0 530.2 L 1000.0 525.5 L 1020.0 520.1 L 1040.0 514.1 L 1060.0 507.7 L 1080.0 501.2 L 1100.0 494.8 L 1120.0 488.7 L 1140.0 483.1 L 1160.0 478.2 L 1180.0 474.2 L 1200.0 471.2 L 1220.0 469.3 L 1240.0 468.5 L 1260.0 469.0 L 1280.0 470.5 L 1300.0 473.2 L 1320.0 476.9 L 1340.0 481.3 L 1360.0 486.5 L 1380.0 492.0 L 1400.0 497.9 L 1420.0 503.7 L 1440.0 509.4 L 1460.0 514.7 L 1480.0 519.3 L 1500.0 523.1 L 1520.0 526.0 L 1540.0 527.9 L 1560.0 528.6 L 1580.0 528.1 L 1600.0 526.5 L 1620.0 523.7 L 1640.0 519.9 L 1660.0 515.2 L 1680.0 509.8 L 1700.0 503.7 L 1720.0 497.4 L 1740.0 490.9 L 1760.0 484.5 L 1780.0 478.3 L 1800.0 472.8 L 1820.0 467.9 L 1840.0 463.9 L 1860.0 460.9 L 1880.0 459.0 L 1900.0 458.2 L 1920.0 458.6" fill="none" stroke="#4a6a9a" stroke-width="1.1" stroke-opacity="0.259"/>
  <path d="M 0.0 551.3 L 20.0 557.3 L 40.0 563.4 L 60.0 569.4 L 80.0 575.0 L 100.0 580.1 L 120.0 584.5 L 140.0 588.0 L 160.0 590.5 L 180.0 592.0 L 200.0 592.3 L 220.0 591.5 L 240.0 589.5 L 260.0 586.4 L 280.0 582.4 L 300.0 577.5 L 320.0 571.8 L 340.0 565.6 L 360.0 559.0 L 380.0 552.3 L 400.0 545.6 L 420.0 539.2 L 440.0 533.2 L 460.0 527.8 L 480.0 523.2 L 500.0 519.5 L 520.0 516.9 L 540.0 515.4 L 560.0 515.0 L 580.0 515.8 L 600.0 517.7 L 620.0 520.6 L 640.0 524.5 L 660.0 529.2 L 680.0 534.5 L 700.0 540.3 L 720.0 546.4 L 740.0 552.5 L 760.0 558.5 L 780.0 564.1 L 800.0 569.2 L 820.0 573.5 L 840.0 577.1 L 860.0 579.6 L 880.0 581.0 L 900.0 581.4 L 920.0 580.5 L 940.0 578.6 L 960.0 575.5 L 980.0 571.5 L 1000.0 566.5 L 1020.0 560.9 L 1040.0 554.7 L 1060.0 548.1 L 1080.0 541.4 L 1100.0 534.7 L 1120.0 528.2 L 1140.0 522.2 L 1160.0 516.9 L 1180.0 512.3 L 1200.0 508.6 L 1220.0 506.0 L 1240.0 504.5 L 1260.0 504.1 L 1280.0 504.9 L 1300.0 506.8 L 1320.0 509.7 L 1340.0 513.6 L 1360.0 518.3 L 1380.0 523.6 L 1400.0 529.4 L 1420.0 535.4 L 1440.0 541.5 L 1460.0 547.5 L 1480.0 553.1 L 1500.0 558.2 L 1520.0 562.6 L 1540.0 566.1 L 1560.0 568.6 L 1580.0 570.1 L 1600.0 570.4 L 1620.0 569.6 L 1640.0 567.6 L 1660.0 564.6 L 1680.0 560.5 L 1700.0 555.6 L 1720.0 549.9 L 1740.0 543.7 L 1760.0 537.2 L 1780.0 530.4 L 1800.0 523.7 L 1820.0 517.3 L 1840.0 511.3 L 1860.0 505.9 L 1880.0 501.3 L 1900.0 497.7 L 1920.0 495.0" fill="none" stroke="#4a6a9a" stroke-width="1.1" stroke-opacity="0.270"/>
  <path d="M 0.0 609.4 L 20.0 615.5 L 40.0 620.8 L 60.0 625.3 L 80.0 628.6 L 100.0 630.6 L 120.0 631.3 L 140.0 630.5 L 160.0 628.4 L 180.0 624.9 L 200.0 620.2 L 220.0 614.6 L 240.0 608.1 L 260.0 601.1 L 280.0 593.8 L 300.0 586.6 L 320.0 579.6 L 340.0 573.2 L 360.0 567.7 L 380.0 563.1 L 400.0 559.8 L 420.0 557.9 L 440.0 557.3 L 460.0 558.1 L 480.0 560.3 L 500.0 563.8 L 520.0 568.3 L 540.0 573.8 L 560.0 580.0 L 580.0 586.5 L 600.0 593.2 L 620.0 599.7 L 640.0 605.8 L 660.0 611.2 L 680.0 615.6 L 700.0 618.9 L 720.0 620.9 L 740.0 621.6 L 760.0 620.8 L 780.0 618.7 L 800.0 615.2 L 820.0 610.5 L 840.0 604.9 L 860.0 598.4 L 880.0 591.4 L 900.0 584.1 L 920.0 576.9 L 940.0 569.9 L 960.0 563.5 L 980.0 558.0 L 1000.0 553.5 L 1020.0 550.1 L 1040.0 548.2 L 1060.0 547.6 L 1080.0 548.4 L 1100.0 550.6 L 1120.0 554.1 L 1140.0 558.7 L 1160.0 564.1 L 1180.0 570.3 L 1200.0 576.8 L 1220.0 583.5 L 1240.0 590.0 L 1260.0 596.1 L 1280.0 601.5 L 1300.0 605.9 L 1320.0 609.2 L 1340.0 611.2 L 1360.0 611.9 L 1380.0 611.1 L 1400.0 609.0 L 1420.0 605.5 L 1440.0 600.9 L 1460.0 595.2 L 1480.0 588.7 L 1500.0 581.7 L 1520.0 574.4 L 1540.0 567.2 L 1560.0 560.2 L 1580.0 553.8 L 1600.0 548.3 L 1620.0 543.8 L 1640.0 540.5 L 1660.0 538.5 L 1680.0 537.9 L 1700.0 538.7 L 1720.0 540.9 L 1740.0 544.4 L 1760.0 549.0 L 1780.0 554.4 L 1800.0 560.6 L 1820.0 567.1 L 1840.0 573.8 L 1860.0 580.3 L 1880.0 586.4 L 1900.0 591.8 L 1920.0 596.2" fill="none" stroke="#4a6a9a" stroke-width="1.1" stroke-opacity="0.259"/>
  <path d="M 0.0 660.0 L 20.0 662.8 L 40.0 664.8 L 60.0 665.7 L 80.0 665.6 L 100.0 664.4 L 120.0 662.3 L 140.0 659.1 L 160.0 655.1 L 180.0 650.4 L 200.0 645.2 L 220.0 639.5 L 240.0 633.7 L 260.0 627.8 L 280.0 622.2 L 300.0 617.0 L 320.0 612.4 L 340.0 608.5 L 360.0 605.4 L 380.0 603.3 L 400.0 602.3 L 420.0 602.3 L 440.0 603.4 L 460.0 605.4 L 480.0 608.3 L 500.0 612.1 L 520.0 616.5 L 540.0 621.3 L 560.0 626.5 L 580.0 631.7 L 600.0 636.8 L 620.0 641.7 L 640.0 646.0 L 660.0 649.7 L 680.0 652.5 L 700.0 654.5 L 720.0 655.4 L 740.0 655.3 L 760.0 654.1 L 780.0 652.0 L 800.0 648.8 L 820.0 644.8 L 840.0 640.1 L 860.0 634.9 L 880.0 629.2 L 900.0 623.4 L 920.0 617.5 L 940.0 611.9 L 960.0 606.7 L 980.0 602.0 L 1000.0 598.1 L 1020.0 595.1 L 1040.0 593.0 L 1060.0 592.0 L 1080.0 592.0 L 1100.0 593.0 L 1120.0 595.1 L 1140.0 598.0 L 1160.0 601.8 L 1180.0 606.2 L 1200.0 611.0 L 1220.0 616.2 L 1240.0 621.4 L 1260.0 626.5 L 1280.0 631.3 L 1300.0 635.7 L 1320.0 639.3 L 1340.0 642.2 L 1360.0 644.1 L 1380.0 645.1 L 1400.0 645.0 L 1420.0 643.8 L 1440.0 641.6 L 1460.0 638.5 L 1480.0 634.5 L 1500.0 629.8 L 1520.0 624.5 L 1540.0 618.9 L 1560.0 613.0 L 1580.0 607.2 L 1600.0 601.6 L 1620.0 596.4 L 1640.0 591.7 L 1660.0 587.8 L 1680.0 584.8 L 1700.0 582.7 L 1720.0 581.7 L 1740.0 581.7 L 1760.0 582.7 L 1780.0 584.8 L 1800.0 587.7 L 1820.0 591.5 L 1840.0 595.8 L 1860.0 600.7 L 1880.0 605.9 L 1900.0 611.1 L 1920.0 616.2" fill="none" stroke="#4a6a9a" stroke-width="1.1" stroke-opacity="0.248"/>
  <path d="M 0.0 698.9 L 20.0 698.8 L 40.0 698.0 L 60.0 696.6 L 80.0 694.4 L 100.0 691.7 L 120.0 688.4 L 140.0 684.7 L 160.0 680.7 L 180.0 676.4 L 200.0 672.1 L 220.0 667.8 L 240.0 663.8 L 260.0 660.0 L 280.0 656.6 L 300.0 653.7 L 320.0 651.4 L 340.0 649.8 L 360.0 648.9 L 380.0 648.7 L 400.0 649.2 L 420.0 650.4 L 440.0 652.2 L 460.0 654.6 L 480.0 657.5 L 500.0 660.7 L 520.0 664.3 L 540.0 667.9 L 560.0 671.6 L 580.0 675.2 L 600.0 678.5 L 620.0 681.5 L 640.0 684.0 L 660.0 685.9 L 680.0 687.3 L 700.0 687.9 L 720.0 687.9 L 740.0 687.1 L 760.0 685.6 L 780.0 683.5 L 800.0 680.7 L 820.0 677.5 L 840.0 673.8 L 860.0 669.7 L 880.0 665.5 L 900.0 661.2 L 920.0 656.9 L 940.0 652.8 L 960.0 649.0 L 980.0 645.6 L 1000.0 642.8 L 1020.0 640.5 L 1040.0 638.9 L 1060.0 637.9 L 1080.0 637.7 L 1100.0 638.2 L 1120.0 639.4 L 1140.0 641.3 L 1160.0 643.7 L 1180.0 646.5 L 1200.0 649.8 L 1220.0 653.3 L 1240.0 657.0 L 1260.0 660.7 L 1280.0 664.2 L 1300.0 667.6 L 1320.0 670.5 L 1340.0 673.1 L 1360.0 675.0 L 1380.0 676.3 L 1400.0 677.0 L 1420.0 676.9 L 1440.0 676.2 L 1460.0 674.7 L 1480.0 672.5 L 1500.0 669.8 L 1520.0 666.5 L 1540.0 662.8 L 1560.0 658.8 L 1580.0 654.5 L 1600.0 650.2 L 1620.0 646.0 L 1640.0 641.9 L 1660.0 638.1 L 1680.0 634.7 L 1700.0 631.8 L 1720.0 629.6 L 1740.0 627.9 L 1760.0 627.0 L 1780.0 626.8 L 1800.0 627.3 L 1820.0 628.5 L 1840.0 630.3 L 1860.0 632.7 L 1880.0 635.6 L 1900.0 638.9 L 1920.0 642.4" fill="none" stroke="#4a6a9a" stroke-width="1.1" stroke-opacity="0.237"/>
  <path d="M 0.0 731.8 L 20.0 729.8 L 40.0 727.2 L 60.0 724.2 L 80.0 720.8 L 100.0 717.1 L 120.0 713.3 L 140.0 709.5 L 160.0 706.0 L 180.0 702.7 L 200.0 699.8 L 220.0 697.5 L 240.0 695.8 L 260.0 694.7 L 280.0 694.4 L 300.0 694.7 L 320.0 695.8 L 340.0 697.4 L 360.0 699.6 L 380.0 702.2 L 400.0 705.2 L 420.0 708.3 L 440.0 711.5 L 460.0 714.5 L 480.0 717.3 L 500.0 719.8 L 520.0 721.8 L 540.0 723.2 L 560.0 724.0 L 580.0 724.0 L 600.0 723.4 L 620.0 722.1 L 640.0 720.1 L 660.0 717.5 L 680.0 714.5 L 700.0 711.1 L 720.0 707.4 L 740.0 703.6 L 760.0 699.9 L 780.0 696.3 L 800.0 693.0 L 820.0 690.1 L 840.0 687.8 L 860.0 686.1 L 880.0 685.0 L 900.0 684.7 L 920.0 685.0 L 940.0 686.1 L 960.0 687.7 L 980.0 689.9 L 1000.0 692.5 L 1020.0 695.5 L 1040.0 698.6 L 1060.0 701.8 L 1080.0 704.8 L 1100.0 707.7 L 1120.0 710.1 L 1140.0 712.1 L 1160.0 713.5 L 1180.0 714.3 L 1200.0 714.3 L 1220.0 713.7 L 1240.0 712.4 L 1260.0 710.4 L 1280.0 707.9 L 1300.0 704.8 L 1320.0 701.4 L 1340.0 697.7 L 1360.0 693.9 L 1380.0 690.2 L 1400.0 686.6 L 1420.0 683.3 L 1440.0 680.4 L 1460.0 678.1 L 1480.0 676.4 L 1500.0 675.4 L 1520.0 675.0 L 1540.0 675.4 L 1560.0 676.4 L 1580.0 678.0 L 1600.0 680.2 L 1620.0 682.9 L 1640.0 685.8 L 1660.0 688.9 L 1680.0 692.1 L 1700.0 695.1 L 1720.0 698.0 L 1740.0 700.4 L 1760.0 702.4 L 1780.0 703.8 L 1800.0 704.6 L 1820.0 704.7 L 1840.0 704.0 L 1860.0 702.7 L 1880.0 700.7 L 1900.0 698.2 L 1920.0 695.1" fill="none" stroke="#4a6a9a" stroke-width="1.1" stroke-opacity="0.226"/>
  <path d="M 0.0 764.5 L 20.0 761.5 L 40.0 758.3 L 60.0 754.9 L 80.0 751.5 L 100.0 748.2 L 120.0 745.1 L 140.0 742.2 L 160.0 739.8 L 180.0 737.8 L 200.0 736.3 L 220.0 735.4 L 240.0 735.1 L 260.0 735.3 L 280.0 736.1 L 300.0 737.5 L 320.0 739.3 L 340.0 741.5 L 360.0 744.0 L 380.0 746.6 L 400.0 749.4 L 420.0 752.1 L 440.0 754.7 L 460.0 757.1 L 480.0 759.1 L 500.0 760.7 L 520.0 761.9 L 540.0 762.4 L 560.0 762.4 L 580.0 761.8 L 600.0 760.7 L 620.0 759.0 L 640.0 756.8 L 660.0 754.1 L 680.0 751.2 L 700.0 747.9 L 720.0 744.6 L 740.0 741.2 L 760.0 737.9 L 780.0 734.8 L 800.0 731.9 L 820.0 729.5 L 840.0 727.5 L 860.0 726.0 L 880.0 725.1 L 900.0 724.8 L 920.0 725.0 L 940.0 725.8 L 960.0 727.2 L 980.0 729.0 L 1000.0 731.2 L 1020.0 733.6 L 1040.0 736.3 L 1060.0 739.1 L 1080.0 741.8 L 1100.0 744.4 L 1120.0 746.8 L 1140.0 748.8 L 1160.0 750.4 L 1180.0 751.5 L 1200.0 752.1 L 1220.0 752.1 L 1240.0 751.5 L 1260.0 750.4 L 1280.0 748.7 L 1300.0 746.5 L 1320.0 743.8 L 1340.0 740.9 L 1360.0 737.6 L 1380.0 734.3 L 1400.0 730.9 L 1420.0 727.6 L 1440.0 724.5 L 1460.0 721.6 L 1480.0 719.2 L 1500.0 717.2 L 1520.0 715.7 L 1540.0 714.8 L 1560.0 714.5 L 1580.0 714.7 L 1600.0 715.5 L 1620.0 716.9 L 1640.0 718.7 L 1660.0 720.8 L 1680.0 723.3 L 1700.0 726.0 L 1720.0 728.8 L 1740.0 731.5 L 1760.0 734.1 L 1780.0 736.5 L 1800.0 738.5 L 1820.0 740.1 L 1840.0 741.2 L 1860.0 741.8 L 1880.0 741.8 L 1900.0 741.2 L 1920.0 740.1" fill="none" stroke="#4a6a9a" stroke-width="1.1" stroke-opacity="0.215"/>
  <path d="M 0.0 795.5 L 20.0 791.7 L 40.0 787.9 L 60.0 784.3 L 80.0 780.9 L 100.0 778.0 L 120.0 775.5 L 140.0 773.5 L 160.0 772.2 L 180.0 771.4 L 200.0 771.3 L 220.0 771.9 L 240.0 773.0 L 260.0 774.7 L 280.0 776.9 L 300.0 779.5 L 320.0 782.4 L 340.0 785.5 L 360.0 788.7 L 380.0 792.0 L 400.0 795.0 L 420.0 797.9 L 440.0 800.4 L 460.0 802.5 L 480.0 804.1 L 500.0 805.2 L 520.0 805.6 L 540.0 805.4 L 560.0 804.6 L 580.0 803.1 L 600.0 801.1 L 620.0 798.5 L 640.0 795.5 L 660.0 792.1 L 680.0 788.4 L 700.0 784.6 L 720.0 780.7 L 740.0 776.9 L 760.0 773.3 L 780.0 770.0 L 800.0 767.0 L 820.0 764.5 L 840.0 762.6 L 860.0 761.2 L 880.0 760.5 L 900.0 760.4 L 920.0 760.9 L 940.0 762.1 L 960.0 763.7 L 980.0 765.9 L 1000.0 768.5 L 1020.0 771.4 L 1040.0 774.6 L 1060.0 777.8 L 1080.0 781.0 L 1100.0 784.1 L 1120.0 787.0 L 1140.0 789.5 L 1160.0 791.6 L 1180.0 793.2 L 1200.0 794.2 L 1220.0 794.7 L 1240.0 794.5 L 1260.0 793.6 L 1280.0 792.2 L 1300.0 790.1 L 1320.0 787.6 L 1340.0 784.5 L 1360.0 781.1 L 1380.0 777.5 L 1400.0 773.7 L 1420.0 769.8 L 1440.0 766.0 L 1460.0 762.4 L 1480.0 759.0 L 1500.0 756.1 L 1520.0 753.6 L 1540.0 751.7 L 1560.0 750.3 L 1580.0 749.6 L 1600.0 749.5 L 1620.0 750.0 L 1640.0 751.1 L 1660.0 752.8 L 1680.0 755.0 L 1700.0 757.6 L 1720.0 760.5 L 1740.0 763.6 L 1760.0 766.9 L 1780.0 770.1 L 1800.0 773.2 L 1820.0 776.0 L 1840.0 778.6 L 1860.0 780.7 L 1880.0 782.3 L 1900.0 783.3 L 1920.0 783.7" fill="none" stroke="#4a6a9a" stroke-width="1.1" stroke-opacity="0.205"/>
  <path d="M 0.0 821.1 L 20.0 816.3 L 40.0 812.2 L 60.0 808.9 L 80.0 806.6 L 100.0 805.3 L 120.0 805.1 L 140.0 806.0 L 160.0 807.9 L 180.0 810.7 L 200.0 814.3 L 220.0 818.6 L 240.0 823.3 L 260.0 828.3 L 280.0 833.3 L 300.0 838.1 L 320.0 842.5 L 340.0 846.3 L 360.0 849.4 L 380.0 851.6 L 400.0 852.8 L 420.0 852.9 L 440.0 852.0 L 460.0 850.0 L 480.0 847.0 L 500.0 843.1 L 520.0 838.5 L 540.0 833.4 L 560.0 827.9 L 580.0 822.2 L 600.0 816.7 L 620.0 811.4 L 640.0 806.6 L 660.0 802.5 L 680.0 799.2 L 700.0 796.9 L 720.0 795.6 L 740.0 795.4 L 760.0 796.3 L 780.0 798.2 L 800.0 801.0 L 820.0 804.6 L 840.0 808.9 L 860.0 813.6 L 880.0 818.6 L 900.0 823.6 L 920.0 828.4 L 940.0 832.8 L 960.0 836.7 L 980.0 839.7 L 1000.0 841.9 L 1020.0 843.1 L 1040.0 843.2 L 1060.0 842.3 L 1080.0 840.3 L 1100.0 837.3 L 1120.0 833.4 L 1140.0 828.8 L 1160.0 823.7 L 1180.0 818.2 L 1200.0 812.6 L 1220.0 807.0 L 1240.0 801.7 L 1260.0 796.9 L 1280.0 792.8 L 1300.0 789.6 L 1320.0 787.2 L 1340.0 786.0 L 1360.0 785.7 L 1380.0 786.6 L 1400.0 788.5 L 1420.0 791.3 L 1440.0 794.9 L 1460.0 799.2 L 1480.0 803.9 L 1500.0 808.9 L 1520.0 813.9 L 1540.0 818.7 L 1560.0 823.1 L 1580.0 827.0 L 1600.0 830.0 L 1620.0 832.2 L 1640.0 833.4 L 1660.0 833.5 L 1680.0 832.6 L 1700.0 830.6 L 1720.0 827.6 L 1740.0 823.7 L 1760.0 819.1 L 1780.0 814.0 L 1800.0 808.5 L 1820.0 802.9 L 1840.0 797.3 L 1860.0 792.0 L 1880.0 787.3 L 1900.0 783.1 L 1920.0 779.9" fill="none" stroke="#4a6a9a" stroke-width="1.1" stroke-opacity="0.194"/>
  <path d="M 0.0 844.3 L 20.0 841.3 L 40.0 839.4 L 60.0 838.6 L 80.0 839.0 L 100.0 840.6 L 120.0 843.3 L 140.0 847.0 L 160.0 851.5 L 180.0 856.6 L 200.0 862.2 L 220.0 868.1 L 240.0 874.0 L 260.0 879.6 L 280.0 884.9 L 300.0 889.6 L 320.0 893.4 L 340.0 896.4 L 360.0 898.2 L 380.0 898.9 L 400.0 898.4 L 420.0 896.8 L 440.0 894.0 L 460.0 890.2 L 480.0 885.5 L 500.0 880.0 L 520.0 874.0 L 540.0 867.6 L 560.0 861.1 L 580.0 854.6 L 600.0 848.5 L 620.0 842.9 L 640.0 838.0 L 660.0 834.0 L 680.0 830.9 L 700.0 829.0 L 720.0 828.3 L 740.0 828.7 L 760.0 830.3 L 780.0 833.0 L 800.0 836.7 L 820.0 841.1 L 840.0 846.3 L 860.0 851.9 L 880.0 857.8 L 900.0 863.6 L 920.0 869.3 L 940.0 874.6 L 960.0 879.3 L 980.0 883.1 L 1000.0 886.0 L 1020.0 887.9 L 1040.0 888.6 L 1060.0 888.1 L 1080.0 886.5 L 1100.0 883.7 L 1120.0 879.9 L 1140.0 875.2 L 1160.0 869.7 L 1180.0 863.7 L 1200.0 857.3 L 1220.0 850.8 L 1240.0 844.3 L 1260.0 838.2 L 1280.0 832.6 L 1300.0 827.7 L 1320.0 823.7 L 1340.0 820.6 L 1360.0 818.7 L 1380.0 818.0 L 1400.0 818.4 L 1420.0 820.0 L 1440.0 822.7 L 1460.0 826.3 L 1480.0 830.8 L 1500.0 836.0 L 1520.0 841.6 L 1540.0 847.4 L 1560.0 853.3 L 1580.0 859.0 L 1600.0 864.3 L 1620.0 869.0 L 1640.0 872.8 L 1660.0 875.7 L 1680.0 877.6 L 1700.0 878.3 L 1720.0 877.8 L 1740.0 876.2 L 1760.0 873.4 L 1780.0 869.6 L 1800.0 864.9 L 1820.0 859.4 L 1840.0 853.4 L 1860.0 847.0 L 1880.0 840.5 L 1900.0 834.0 L 1920.0 827.9" fill="none" stroke="#4a6a9a" stroke-width="1.1" stroke-opacity="0.183"/>
  <path d="M 0.0 875.4 L 20.0 875.7 L 40.0 877.1 L 60.0 879.6 L 80.0 883.1 L 100.0 887.5 L 120.0 892.6 L 140.0 898.2 L 160.0 904.2 L 180.0 910.3 L 200.0 916.3 L 220.0 922.1 L 240.0 927.5 L 260.0 932.2 L 280.0 936.1 L 300.0 939.0 L 320.0 941.0 L 340.0 941.8 L 360.0 941.4 L 380.0 939.9 L 400.0 937.3 L 420.0 933.7 L 440.0 929.1 L 460.0 923.8 L 480.0 917.8 L 500.0 911.3 L 520.0 904.6 L 540.0 897.9 L 560.0 891.3 L 580.0 885.1 L 600.0 879.4 L 620.0 874.5 L 640.0 870.4 L 660.0 867.3 L 680.0 865.3 L 700.0 864.5 L 720.0 864.8 L 740.0 866.2 L 760.0 868.7 L 780.0 872.2 L 800.0 876.6 L 820.0 881.6 L 840.0 887.2 L 860.0 893.2 L 880.0 899.3 L 900.0 905.4 L 920.0 911.2 L 940.0 916.5 L 960.0 921.2 L 980.0 925.1 L 1000.0 928.1 L 1020.0 930.0 L 1040.0 930.8 L 1060.0 930.5 L 1080.0 929.0 L 1100.0 926.4 L 1120.0 922.8 L 1140.0 918.2 L 1160.0 912.8 L 1180.0 906.8 L 1200.0 900.4 L 1220.0 893.7 L 1240.0 887.0 L 1260.0 880.4 L 1280.0 874.2 L 1300.0 868.5 L 1320.0 863.5 L 1340.0 859.5 L 1360.0 856.4 L 1380.0 854.4 L 1400.0 853.5 L 1420.0 853.8 L 1440.0 855.3 L 1460.0 857.8 L 1480.0 861.3 L 1500.0 865.6 L 1520.0 870.7 L 1540.0 876.3 L 1560.0 882.3 L 1580.0 888.4 L 1600.0 894.5 L 1620.0 900.3 L 1640.0 905.6 L 1660.0 910.3 L 1680.0 914.2 L 1700.0 917.2 L 1720.0 919.1 L 1740.0 919.9 L 1760.0 919.6 L 1780.0 918.1 L 1800.0 915.5 L 1820.0 911.8 L 1840.0 907.3 L 1860.0 901.9 L 1880.0 895.9 L 1900.0 889.5 L 1920.0 882.8" fill="none" stroke="#4a6a9a" stroke-width="1.1" stroke-opacity="0.172"/>
  <path d="M 0.0 921.1 L 20.0 925.0 L 40.0 930.0 L 60.0 935.8 L 80.0 942.1 L 100.0 948.7 L 120.0 955.4 L 140.0 961.7 L 160.0 967.5 L 180.0 972.5 L 200.0 976.5 L 220.0 979.2 L 240.0 980.7 L 260.0 980.8 L 280.0 979.4 L 300.0 976.7 L 320.0 972.7 L 340.0 967.6 L 360.0 961.6 L 380.0 954.9 L 400.0 947.7 L 420.0 940.5 L 440.0 933.3 L 460.0 926.6 L 480.0 920.5 L 500.0 915.4 L 520.0 911.4 L 540.0 908.6 L 560.0 907.2 L 580.0 907.3 L 600.0 908.7 L 620.0 911.4 L 640.0 915.4 L 660.0 920.3 L 680.0 926.1 L 700.0 932.4 L 720.0 939.0 L 740.0 945.7 L 760.0 952.0 L 780.0 957.8 L 800.0 962.8 L 820.0 966.8 L 840.0 969.6 L 860.0 971.0 L 880.0 971.1 L 900.0 969.7 L 920.0 967.0 L 940.0 963.0 L 960.0 957.9 L 980.0 951.9 L 1000.0 945.2 L 1020.0 938.0 L 1040.0 930.8 L 1060.0 923.6 L 1080.0 916.9 L 1100.0 910.8 L 1120.0 905.7 L 1140.0 901.7 L 1160.0 898.9 L 1180.0 897.6 L 1200.0 897.6 L 1220.0 899.0 L 1240.0 901.7 L 1260.0 905.7 L 1280.0 910.6 L 1300.0 916.4 L 1320.0 922.7 L 1340.0 929.4 L 1360.0 936.0 L 1380.0 942.3 L 1400.0 948.1 L 1420.0 953.1 L 1440.0 957.1 L 1460.0 959.9 L 1480.0 961.3 L 1500.0 961.4 L 1520.0 960.0 L 1540.0 957.3 L 1560.0 953.3 L 1580.0 948.2 L 1600.0 942.2 L 1620.0 935.5 L 1640.0 928.4 L 1660.0 921.1 L 1680.0 913.9 L 1700.0 907.2 L 1720.0 901.2 L 1740.0 896.0 L 1760.0 892.0 L 1780.0 889.3 L 1800.0 887.9 L 1820.0 887.9 L 1840.0 889.3 L 1860.0 892.0 L 1880.0 896.0 L 1900.0 900.9 L 1920.0 906.7" fill="none" stroke="#4a6a9a" stroke-width="1.1" stroke-opacity="0.161"/>
</svg>
